<svg xmlns="http://www.w3.org/2000/svg"  viewBox="0 0 120 120" width="60px" height="60px" baseProfile="basic"><polygon points="74,98 46,98 37,86 83,86" opacity=".35"/><path fill="#a4e2f1" d="M87,87H33V36C33,21.088,45.088,9,60,9h0c14.912,0,27,12.088,27,27V87z"/><rect width="21" height="10" x="12" y="42" fill="#0037ff"/><rect width="21" height="2" x="12" y="52" opacity=".35"/><rect width="21" height="2" x="87" y="52" opacity=".35"/><polygon fill="#a4e2f1" points="28,98 20.104,98 16,91 16,36 28,36"/><polygon fill="#52afff" points="31,98 20,98 16,111 31,111"/><rect width="12" height="23" x="16" y="59" fill="#52afff"/><rect width="21" height="10" x="87" y="42" fill="#0037ff" transform="rotate(-180 97.5 47)"/><polygon fill="#a4e2f1" points="92,98 99.896,98 104,91 104,36 92,36"/><polygon fill="#52afff" points="89,98 100,98 104,111 89,111"/><rect width="12" height="23" x="92" y="59" fill="#52afff" transform="rotate(-180 98 70.5)"/><polygon fill="#52afff" points="74,95 46,95 40,87 80,87"/><rect width="18" height="7" x="33" y="35" fill="#0037ff"/><rect width="11" height="7" x="76" y="35" fill="#0037ff"/><rect width="10" height="18" x="55" y="24" fill="#0037ff"/><rect width="8" height="16" x="56" y="59" fill="#0037ff"/><circle cx="70.5" cy="38.5" r="2.5" fill="#52afff"/><circle cx="60" cy="29" r="3" fill="#52afff"/><circle cx="61.5" cy="38.5" r="1.5" fill="#a4e2f1"/><path fill="#0037ff" d="M78.138,16C73.345,11.651,66.982,9,60,9s-13.345,2.651-18.138,7H78.138z"/><rect width="34" height="4" x="43" y="45" fill="#0037ff"/><rect width="34" height="4" x="43" y="52" fill="#0037ff"/><path fill="#52afff" d="M60,66L60,66c-1.105,0-2-0.895-2-2v-1c0-1.105,0.895-2,2-2h0c1.105,0,2,0.895,2,2v1 C62,65.105,61.105,66,60,66z"/><path fill="#52afff" d="M60,73L60,73c-1.105,0-2-0.895-2-2v-1c0-1.105,0.895-2,2-2h0c1.105,0,2,0.895,2,2v1 C62,72.105,61.105,73,60,73z"/><rect width="8" height="8" x="56" y="79" fill="#0037ff"/><circle cx="60" cy="83" r="2" fill="#52afff"/><rect width="6" height="10" x="40" y="73" fill="#52afff"/><rect width="6" height="7" x="74" y="76" fill="#52afff"/><rect width="54" height="4" x="33" y="87" opacity=".35"/><rect width="12" height="4" x="16" y="82" opacity=".35"/><rect width="15" height="4" x="16" y="111" opacity=".35"/><rect width="15" height="4" x="89" y="111" opacity=".35"/><rect width="12" height="4" x="92" y="82" opacity=".35"/></svg>